<svg xmlns="http://www.w3.org/2000/svg" viewBox="0 0 2744.4947 810.3299"><defs><style>.cls-1{fill:#fff;}</style></defs><g id="レイヤー_2" data-name="レイヤー 2"><g id="文字なし"><path class="cls-1" d="M676.8106,34.6966c1.249.6456,3.0046,1.6544,3.8484,2.1234.5848.325,1.9124,1,2.21,1.1451,40.1719,19.6707,76.1528,44.3875,105.0363,79.0736.5312.6379,3.5036.4618,3.98-.2468,42.4379-63.1321,122.1759-69.587,174.0989-13.97,4.1149,4.4075,8.5884,8.1915-.0728,13.44-54.3839,32.9583-108.6717,39.953-167.5954,13.9593a.79.79,0,0,0-1.1477.8744c2.2237,15.0182,7.5854,30.82,6.8687,47.4063-.8636,19.9836-6.6625,39.7454-10.0865,59.6442.04,1.831.1283,3.4964,2.2172,4.817,65.6564,23.409,117.7728,94.4647,122.1644,164.2158,5.4637,86.7769-30.1844,156.446-84.379,220.89-31.6882,37.6809-67.7471,68.084-110.3737,91.6658-83.3407,46.1054-173.5646,70.5188-267.162,83.0179-70.9346,9.4727-142.027,12.9977-212.2429-7.122C165.3228,773.036,96.01,735.7,44.6977,669.5839,13.15,628.9347,2.41,581.3305.4254,531.6417c-3.0092-75.3264,9.4652-147.6056,52.8218-211.3234,36.47-53.5969,85.646-91.07,151.6256-95.92,40.8815-3.005,82.5821,2.5641,123.7224,6.3672,42.0831,3.89,83.8078,12.71,125.9212,14.8868,33.5716,1.7352,67.6314-1.9772,101.2248-5.592,51.21-5.51,102.0553-15.3354,153.3573-18.6314,22.7867-1.464,46.4423,7.9943,69.4212,13.6428,3.8167,1.0221,8.8825,2.1274,10.2336-6.3012,4.0376-25.19,8.3412-55.4993,5.6985-76.32-.4042-3.1852-2.7525-15.9538-6.8645-21.5053-.7831-1.0614-2.8694-.8436-3.5412-.513-53.7747,26.46-111.021,35.38-169.7772,40.686-75.955,6.859-151.9843,6.4039-225.994-13.52-26.7008-7.1881-51.046-23.5613-75.6664-37.188-1.9016-1.0525.8858-14.5215,4.31-20.6442C352.5019,36.1438,411.32,10.3891,480.0063,2.4057c59.9956-6.9734,118.3129,1.3856,174.79,22.84,9.1618,3.48,8.4106,3.3972,16.54,6.9294C671.9351,32.3737,674.9663,33.7432,676.8106,34.6966ZM236.7235,231.578a28.1225,28.1225,0,0,0-4.4865.2162c-13.4179.097-20.1891-1.24-30.1313.2732a172.1565,172.1565,0,0,0-23.2066,4.8043C99.9939,260.3564,53.1371,316.208,25.2784,390.5662,4.0031,447.3526,5.074,506.46,11.4027,565.33c2.4107,22.4238,8.3727,45.63,18.1154,65.8822,28.819,59.9069,78.7294,98.9467,136.6151,128.6709,75.57,38.8046,156.3908,49.948,240.08,43.5459,72.0216-5.51,142.3619-19.2288,211.0646-42.4846C713.7826,728.278,797.705,679.0475,855.21,591.8691c31.952-48.44,56.6553-99.4417,56.1966-159.069-.4389-57.07-21.69-106.2844-62.5042-145.5776-15.6264-15.044-35.7588-25.971-55.0836-36.4841-33.1023-18.0083-69.3884-26.1173-106.75-21.8742-46.2348,5.2507-92.0035,14.4891-138.1732,20.4614-52.5526,6.7979-105.2184,5.4807-157.7476-1.8361C338.3255,240.1317,290.0436,232.7409,236.7235,231.578Zm303.2427-63.3951c27.7206-1.6785,55.54-2.3973,83.1409-5.24,53.6292-5.5237,106.8008-13.6576,156.0012-37.6881,1.1712-.572,2.035-5.1468,1.2091-5.9357-15.6845-14.9821-30.1025-31.9319-47.8147-44.0384C655.0905,22.3688,569.0741.4775,475.7446,10.7062c-64.0519,7.02-116.9417,34.21-150.9694,91.395-2.6046,4.3772-4.4668,14.2991-2.8027,15.3174,15.2386,9.3255,30.6811,18.9757,47.3,25.2678C424.1884,163.4785,481.8658,166.932,539.9662,168.1829ZM867.5945,134.32c27.3756-.4081,53.81-7.8537,81.0142-17.2246,8.5-2.9281,12.362-9.2924,2.6569-18.5768-42.7615-40.9077-124.055-29.72-153.387,21.8916-.352.6194.6883,2.9371,1.4434,3.1465C820.7215,129.49,841.4469,134.71,867.5945,134.32Z"/><path class="cls-1" d="M449.3107,698.8545c19.6828-.5968,43.7332-5.4094,62.1119-12.1351,30.9576-11.329,62.0766-23.0661,91.243-38.2515,49.9385-26,84.6166-68.5864,110.7192-117.05a284.1367,284.1367,0,0,0,34.194-150.1894c-1.5-30.3962-6.426-60.6161-9.2084-90.9705-.2111-2.3033,4.7421-7.5,6.6977-7.2173C772.4816,287,785.3,302.47,789.1,329.86c6.8087,49.0839-12.2135,93.6274-22.8225,139.6031-3.519,15.25-10.1323,29.907-16.393,44.3754-8.79,20.313,8.838,59.8418,29.9538,65.6418,10.1441,2.7865,33.8878-11.2668,39.71-26.04,8.5937-21.8055,13.9043-40.4111,21.8085-64.1019.629-2.625,1.379-6.81,1.5363-7.8508,4.7306-32.8145,8.5414-63.2767,13.5955-97.9385a45.85,45.85,0,0,1,1.8043-6.2277,46.6048,46.6048,0,0,1,2.9713,5.1577c24.7276,58.6665,22.8756,118.9057,4.5133,177.8383-6.1238,19.6542-23.5908,37.7688-40.0346,51.66-16.9453,14.3149-40.8953,8.1505-60.7609-6.3875a183.3207,183.3207,0,0,1-15.2905-11.9936c-3.742-3.1612-4.4839-6.7741-5.5942-8.981-2.791-10.7261-2.8575-10.8185-4.9374-19.0576-2.1016-8.3251-4.0972-16.6769-5.8516-23.8418-11.2114,15.2417-22.5222,31.755-34.9811,47.3511C654.524,643.9,597.7849,680.53,530.717,698.5206c-41.3175,11.0833-84.4158,19.224-127.0192,20.889-54.2868,2.1216-109.4275.3639-163.2083-6.9821C169.53,702.735,103.35,676.8493,46.5972,631.1934c-2.4636-1.982-2.548-10.5787-.396-13.9743,7.2611-11.4566,16.5322-21.6242,24.0459-32.9412a109.8054,109.8054,0,0,0,11.4167-23.5517c1.6073-4.4723.6318-9.8728.8211-14.8547-5.7.23-12.379-1.3641-16.9034,1.0607-10.2756,5.5074-19.47,13.0227-29.16,19.6414a47.0417,47.0417,0,0,1-5.3673,2.7642c-.19-2.1181-1.2393-4.6609-.4353-6.288,7.1705-14.511,14.8567-28.7674,22.011-43.2861,5.9607-12.0966,11.41-24.4453,18.3608-39.43-10.2362,9.1226-18.4864,16.1318-26.33,23.57-6.6564,6.3129-12.7172,13.2532-19.3567,19.5855-1.1565,1.1031-4.6112,1.4678-5.7022.5777-1.6459-1.3431-3.4227-4.442-2.9423-6.1891,8.1143-29.506,27.475-47.29,57.3258-53.532,12.005-2.51,20.4583,8.5089,15.22,22.3792-5.9459,15.7444-14.5712,30.4769-21.1684,43.8935,4.3657-1.5212,11.4315-4.9535,18.8707-6.2615,5.7339-1.0081,14.8218-1.57,17.2823,1.6256,4.1011,5.3257,7.7159,15.6218,5.2016,20.6709-12.6465,25.3955-27.4472,49.713-41.125,74.61-1.0641,1.937-.1857,7.2252,1.26,7.9263,51.295,24.8842,186.1864,65.032,243.2405,69.6646"/><path class="cls-1" d="M267.63,372.4361c11.7431,1.1417,27.4592,2.4479,43.1187,4.2477,20.19,2.32,31.9163,18.6055,25.4859,37.923-10.8337,32.5453-25.3039,63.8426-52.6287,85.7464-6.7518,5.4123-20.9508,3.2593-31.3963,1.95-17.3189-2.1709-27.2059,2.7871-32.4192,20.6053-5.1451,17.5852-15.0148,33.7553-20.6195,51.2486-4.9718,15.5183-7.911,31.8821-9.8811,48.0994-1.3073,10.7611,14.4579,20.6268,25.7269,15.7776,28.6221-12.3166,56.6922-25.9129,85.0806-38.7824,1.9208-.8707,4.6513.0445,7.0052.1292-1.7141,3.6432-2.54,8.2646-5.292,10.765-13.9588,12.6817-28.5978,24.6115-42.6525,37.1914-15.3459,13.7358-33.6013,16.4064-53.0111,14.65-18.02-1.63-33.8126-13.8658-36.2979-34.6731-1.934-16.1927,1.8743-33.82,6.458-49.8593,6.1989-21.69,13.7236-43.4474,24.1738-63.34,8.7947-16.7415-2.5355-12.9263-10.24-13.0771-2.6973-.0529-7.2811,3.166-7.9335,5.6857C172.284,545.4372,158.6988,582.57,134.801,615.1051c-9.45,12.8663-32.6472,21.9066-42.34,17.182-2.72-1.3259-4.6935-4.183-7.0094-6.3377,2.221-1.9275,4.2453-4.1607,6.6932-5.7355,26.1261-16.8073,43.8133-40.5761,54.9394-69.0229,5.6581-14.4666,8.7974-29.93,12.7331-45.0326.2809-1.0777-2.59-4.3385-3.4348-4.1443-13.5508,3.1173-26.8709,7.4156-40.5283,9.843-14.7377,2.6192-18.5973-6.5581-16.642-19.0453,7.7655-49.5931,33.7783-86.3,78.9615-108.465,8.1937-4.02,18.6705-3.1871,27.23-6.6984,19.3827-7.951,39.3132-15.4879,56.9052-26.556,11.5651-7.2763,20.7723-19.5237,28.5925-31.1834,7.7492-11.5537-.0365-21.0355-14.1969-22.8844-37.47-4.8926-62.6175,13.806-83.4111,41.515-10.545,14.0519-19.8779,29.0625-31.0481,42.5736-5.0011,6.0491-13.0815,9.6233-20.0186,13.9094-.8551.5283-4.3045-1.134-4.7488-2.4093a10.0762,10.0762,0,0,1,.3655-6.881c15.0476-32.899,36.4088-60.5107,67.6865-79.6146,30.1-18.3847,61.3324-29.7748,96.9242-16.3548,17.6562,6.6573,26.062,32.0007,13.4378,42.813C299.3592,346.7354,282.3408,360.3276,267.63,372.4361Zm-8.6971,114.9333c.9839.0028,2.1357.0392,2.9664.0392,2.86,0,6.57-2.0646,7.3656-3.3524,14.9747-24.2268,28.99-47.0618,43.2488-71.71,1.1511-1.99-1.8741-9.3123-4.01-9.8313-19.4854-4.7354-39.1979-8.5412-58.8739-12.4691a3.71,3.71,0,0,0-3.023,1.7028q-22.1175,45.074-43.9354,90.2939c-.1749.3626,1.1484,2.1009,1.7789,2.1046C223.8325,484.2625,239.5508,487.3694,258.9332,487.3694Zm-95.3226-71.652c-14.6889,23.6085-23.8457,44.7477-38.3324,68.48-.3674.602,1.5655,3.7719,2.3541,3.7437,15.1-.5393,30.1914-1.3535,45.2769-2.2385.69-.04,1.5264-1.169,1.93-1.9737q20.8218-41.48,41.5656-83c1.5141-3.025,3.0775-6.0254,4.618-9.0372-3.6417-.0058-7.3307-.3951-10.9169.0482-16.6487,2.058-34.95.5907-44.2649,20.2445"/><path class="cls-1" d="M380.0051,381.9452c9.7088.3356,24.341-16.65,37.8146-24.63,6.6075-3.9139,14.27-8.1578,21.5667-8.3687,16.4646-.4758,18.4717,15.0292,20.8391,25.6747,5.8908,26.4894,8.9976,53.5937,13.5871,80.3886.2445,1.4271,3.7566,2.992,5.9054,3.2694,7.6119.9827,16.1635-.9647,22.7855,2.6958,7.8721,4.3515,2.6141,10.8234.428,12.84a57.0865,57.0865,0,0,1-20.1367,11.9673c-7.9253,4.9085-8.8349,19.1534-10.4489,29.1381-5.3529,33.115-9.11,66.4868-14.3765,99.6175-2.2674,14.2644-6.3381,28.2917-10.2906,42.228-7.1043,25.0491-32.4646,40.0284-56.4481,33.8521-15.6288-4.0247-27.81-19.8185-27.78-36.1944.002-1.0947.9288-3.0874,1.4818-3.1076a7.2383,7.2383,0,0,1,4.4389,1.2558c12.0047,9.38,25.9744,16.3356,38.7869,5.4108,8.4444-7.2,15.01-19.4121,17.3573-30.4553,8.8434-41.6009,15.6148-83.6422,23.1461-125.5214a12.7079,12.7079,0,0,0-.2067-2.2487c-26.3042,8.7872-52.588,16.6626-77.9139,26.9062-4.2922,1.736-5.065,13.5412-6.444,20.8858-7.9639,42.4167-20.13,82.9844-50.9768,115.1221-4.2372,4.4145-10.5463,7.1593-16.347,9.61-2.6077,1.1015-6.326-.4264-9.54-.7612.43-3.5507-.4784-8.3516,1.4932-10.4617,23.7179-25.3854,39.9551-55.0361,50.6591-87.7968,4.0653-12.4424,6.7736-25.3282,11.166-42.0748-41.1254,18.81-109.3656,55.43-117.0985,53.5584a2.9882,2.9882,0,0,1-1.77-3.3456c3.7177-14.0277,47.2025-32.4329,71.4246-47.6619,15.9536-10.03,34.34-16.6052,48.9718-28.1154,5.6944-4.48,5.19-18.22,5.5645-27.8174,1.0443-26.74.5739-53.5409,1.6553-80.2792.87-21.5049,14.8555-36.7019,28.9516-50.5962,13.0928-12.9054,27.0962-26.0447,43.1411-34.3788,10.211-5.304,24.8752-2.08,37.5488-2.4867.7733-.0248,2.3,1.72,2.2276,2.53-.091,1.0178-1.324,2.12-2.3141,2.8441q-44.67,32.6635-89.3813,65.27C379.4488,381.4693,379.1539,381.9158,380.0051,381.9452ZM377.5878,493.344c21.3-8.1794,46.8479-17.9777,72.3616-27.8642a2.6155,2.6155,0,0,0,1.0738-2.1956c-3.7746-28.843-7.5211-57.6913-11.7369-86.4706-.7886-4.3139-4.8347-4.4193-6.6019-3.9065-8.6129,2.4994-16.8469,6.6583-25.187,9.3558-13,4.2045-33.0865,3.366-30.5425,29.0684C379.7374,439.443,377.5878,468.0429,377.5878,493.344Z"/><path class="cls-1" d="M500.55,518.7193c-5.5716,6.0434-9.9933,10.9793-14.607,15.7286-.9527.9806-2.6207,1.2661-3.959,1.872-.3829-1.5561-1.3868-3.26-1.0575-4.6468,7.2729-30.63,55.2864-68.8177,86.2259-68.7263,36.59.1082,56.9462,33.7888,40.931,68.8562-9.5751,20.9662-20.5976,41.2713-32.9052,65.7183,12.7744-8.8554,25.7641-14.7187,34.2842-24.4823,13.7119-15.7135,26.9621-32.8083,35.9123-51.4748,14.2775-29.7768,26.9835-60.6921,36.3949-92.3047a434.3124,434.3124,0,0,0,17.1766-90.548c1.388-18.3972-6.7707-37.5031-10.4919-56.32-.2887-1.46.5922-3.1507.9294-4.7341,1.1576.3326,2.5211.3782,3.4427,1.04,29.5329,21.1957,32.1966,53.6372,34.7383,85.557,5.1613,64.8226-17.527,122.7985-52.0133,174.98-19.6217,29.6894-43.25,59.4317-78.8243,73.6314-6.8119,2.7191-17.1774,3.433-23.1006.0963-13.8433-7.7983-19.1268,2.4712-27.7738,8.5945-20.94,14.8283-42.5285,28.78-64.3034,42.3667-6.8724,4.2882-15.0976,6.4887-22.8419,9.2584-2.9317,1.0485-6.2532,1.0073-9.3971,1.4628,2.3626-2.1488,4.3645-5.2036,7.1422-6.309,35.972-14.3144,55.3243-46.0216,77.9833-74.2389.667-.8305.2995-3.5858-.5658-4.392C513.7657,570.9693,501.3533,548.5659,500.55,518.7193Zm73.9922-20.0159c-1.4966-5.3528,2.4921-17.1049-11.9731-13.0587-10.4371,2.92-21.6944,4.9633-30.67,10.5021-10.0311,6.19-25.6877,9.2087-24.1959,26.2361,2.1,23.9679,14.2645,42.0237,34.0914,55.136.8159.54,3.2642.1579,3.7575-.5864C561.0177,553.5982,572.9828,528.9026,574.5426,498.7034Z"/><path class="cls-1" d="M525.6405,347.0093c-3.9363,34.2061-12.5577,67.0742-36.5493,93.944-2.6246,2.94-7.6933,3.6967-11.6283,5.4661,1.2789-3.4808,2.9322-6.8733,3.7768-10.4565,6.3268-26.8424,13.145-53.5953,18.4276-80.646,2.52-12.9046,1.8162-26.418,3.0875-39.606.2376-2.4639,4.0877-6.8334,4.3073-6.714,4.8784,2.6536,9.3728,6.0025,14.1963,8.7733,1.5991.9186,4.4925,1.52,5.8.6936,7.9586-5.03,15.02-12.1574,23.5863-15.3388,7.1794-2.6664,17.6726-3.69,23.5452-.1746,4.3051,2.5774,5.62,14,4.5916,20.9346-3.4849,23.5036-10.4175,46.6233-12.2563,70.1844-.797,10.2121,4.8577,25.483,12.67,30.4467,6.9088,4.3895,23.4752,1.0875,31.2461-4.8,23.123-17.5189,27.8057-46.26,35.8919-72.0078,5.0927-16.216,5.3149-33.96,7.7755-51.01a9.5442,9.5442,0,0,1,1.1517-2.4788c1.12,1.1535,3.0905,2.21,3.2344,3.4751,2.28,20.0386,7.8989,40.5243,5.5987,60.0655-3.5608,30.2507-12.0188,59.5377-35.3589,82.7912-17.1131,17.05-58.1763,22.5873-68.4127,3.0481-9.3039-17.7592-11.4637-40.225-12.8166-60.8752-1.0474-15.9856,3.6181-32.4424,6.4948-48.5558,2.0951-11.7366-2.4387-13.36-11.9144-9.275C532.5846,328.9894,520.7626,331.32,525.6405,347.0093Z"/><path class="cls-1" d="M56.7778,441.9721c8.8937-20.7072,15.3392-40.9059,25.8224-58.73,11.5518-19.6406,26.23-37.579,40.7742-55.2485,5.045-6.1291,13.7315-9.2847,20.8441-13.6531.7528-.4624,2.5427-.7434,3.1855.1223.6513.8773-.1432,2.5306-.8117,3.13-21.1084,18.9255-28.8635,44.8508-37.8854,70.3713a537.097,537.097,0,0,1-24.284,57.8481c-2.1283,4.3295-10.7552,7.0077-16.5738,7.35C59.7235,450.919,56.7778,444.08,56.7778,441.9721Z"/><path class="cls-1" d="M374.4977,569.9513c3.742-18.3226-1.2122-23.77,19.9413-36.9278,1.1695-.7274,13.1729,1.483,16.4659,5.443,11.3484,13.6472-.7571,61.182-16.4823,69.42-16.4561,2.7862-22.2474,10.8387-20.6838-21.3271.044-.9062-.0039-1.8154-.0039-2.7232C374.24,576.919,375.0139,574.1126,374.4977,569.9513Z"/><path class="cls-1" d="M419.9171,445.4352c-6.9448,10.9195-4.6743,12.5735-12.5913,22.7356-2.043,2.6223-10.1965,3.4568-13.3108,1.5211-3.9168-2.4343-7.8645-8.62-7.7479-13.0817.4933-18.88.4645-38.8665,18.5343-50.89,2.9648-1.9728,13.3264,1.6565,15.6412,5.4908,3.6319,6.0161,3.9261,12.9018,3.2326,21.8083A72.9628,72.9628,0,0,1,419.9171,445.4352Z"/><path class="cls-1" d="M1020.8347,444.2276c-19.0376-16.6677-29.358-40.7661-35.9675-64.6832-.3952-1.43-.8419-1.7623-2.2815-3.0913,6.6806-5.1566,16.7262-6.9356,20.8633-14.2982,3.397-6.0454,1.5218-12.4137-4.0362-9.152-13.6227,7.9941-26.003,17.6573-38.06,27.82-9.4726,7.9844-24.4246,19.011-22.6671,30.3215.984,6.3324,12.6463,9.871,13.0014,3.4406.6754-12.2293,10.7857-21.6844,18.7363-28.3208q2.4337-2.0313,4.8961-4.0337c-1.4187,13.168,18.6343,51.7108,39.5509,70.0238C1019.72,456.5,1025.6529,448.4461,1020.8347,444.2276Z"/><path class="cls-1" d="M1098.2383,369.0672a114.8738,114.8738,0,0,0-30.7392,18.6661,130.48,130.48,0,0,0-12.2362,12.153,42.5849,42.5849,0,0,1-6.9867,6.7544,178.5,178.5,0,0,1-10.768-26.6129c8.9892-1.7867,17.372-4.11,23.2248-10.0421,8.4564-8.571,19.3167-14.64,28.6372-19.0769,5.7936-2.7577,1.7975-11.9287-4.0362-9.1519a118.3628,118.3628,0,0,0-26.8332,18.2182c-6.1488,5.604-15.4675,8.4752-23.7048,10.44a179.2922,179.2922,0,0,1-4.6561-26.8771,241.0925,241.0925,0,0,1,47.9909-27.3242c5.9135-2.5245,1.8976-11.6852-4.0362-9.152a252.2983,252.2983,0,0,0-46.3178,25.8839c-2.93-1.9246-8.3526.1167-8.0876,4.8733a185.6448,185.6448,0,0,0,19.0455,72.0638c-3.4151,2.3331-1.5055,9.3657,3.8812,9.1566,12.3144-.4781,19.2547-12.5118,27.34-20.1018a106.1062,106.1062,0,0,1,32.3187-20.7182C1108.2193,375.7643,1104.1974,366.6065,1098.2383,369.0672Z"/><path class="cls-1" d="M1196.5374,338.8341c-13.4827-4.5893-23.0907-13.5263-30.3246-25.6014-6.4287-10.7311-14.1539-22.4869-27.9646-23.2525-2.4481-.1358-5.563,1.5075-5.5756,4.3518A210.352,210.352,0,0,1,1121.8,360.57c-2.0468,6.0872,7.2246,9.842,9.2784,3.7339q2.9651-8.8173,5.1749-17.8215a55.9589,55.9589,0,0,1,30.4432-9.3528,5.2083,5.2083,0,0,0,4.1-1.9361,63.0782,63.0782,0,0,0,22.0068,12.9193C1198.8852,350.1826,1202.6382,340.9107,1196.5374,338.8341Zm-57.5109-5.24a216.2488,216.2488,0,0,0,3.4666-32.4454c10.0474,4.1571,14.6426,17.6274,20.794,25.8248.0989.1318.2045.2583.3045.3892A67.6693,67.6693,0,0,0,1139.0265,333.5941Z"/><path class="cls-1" d="M1289.4054,341.1237c-5.1953-8.0158-8.0244-17.2184-10.066-26.4763-.9978-4.5244-1.6632-9.1307-2.76-13.6314-.7639-3.1352-1.4792-7.29-4.3769-9.2047-3.1779-2.1-6.0534-.3851-8.648,1.6482-3.7247,2.9188-7.2356,6.05-11.4046,8.3449-3.8619,2.1253-7.9668,4.1408-11.2289,6.9534l-8.7055-20.4789c-1.8514-4.3554-7.2469-3.3735-9.2152.1511-2.141,3.8338-3.065,8.2661-4.72,12.3259-1.9525,4.7913-4.282,9.4146-6.419,14.1235-4.1134,9.0642-6.9958,18.213-6.75,28.2477.1574,6.4187,10.0491,4.9034,9.8931-1.4583-.2277-9.2812,3.7389-17.9637,7.5837-26.1862,1.8245-3.9017,3.7086-7.7822,5.2959-11.7889l.0074-.02,7.4756,17.5859c1.5457,3.636,8.0628,4.1455,9.2153-.151,1.6677-6.2178,8.1234-8.1134,13.182-11.0348a62.3618,62.3618,0,0,0,6.7217-4.5257c.8279-.6344,1.6406-1.2882,2.45-1.9456.0408.19.0914.3775.1289.5684.5065,2.2581.8709,4.5516,1.32,6.8218.8449,4.2694,1.7747,8.5208,2.9313,12.7175a83.5138,83.5138,0,0,0,10.2817,23.6657C1285.0947,352.7694,1292.8838,346.49,1289.4054,341.1237Z"/><path class="cls-1" d="M1186.2716,561.0657c-2.6845-19.6221-10.7241-38.4591-19.2244-56.2184-6.98-14.5833-15.5993-21.9647-31.7259-27.7682-4.1608-1.4973-7.07-1.8756-10.6078-2.8049-31.0718-6.2153-69.0588-9.1166-90.524,19.3027-20.1888,26.73-9.738,65.5823,9.4017,89.7147,20.5972,25.97,53.0263,38.8615,85.7073,39.134,15.7254.131,36.4531-.7229,47.432-13.5619C1187.5661,596.1917,1188.4175,576.7525,1186.2716,561.0657Zm-25.2741,31.4883c-4.6619,6.5592-14.35,4.3938-21.7746,4.9021-15.5924,1.0679-31.8041-3.1086-46.3128-9.0894-25.6654-10.58-41.8522-28.51-41.9845-57.1336-.1889-40.9059,30.1477-40.8805,47.4609-39.6542,3.2482.23,22.64.1234,29.4713,3.1017,7.4545,3.25,17.1142,15.2977,21.792,25.5958,6.926,15.2478,14.04,31.8147,15.1269,48.7294C1165.2286,576.04,1165.3045,586.4937,1160.9975,592.554Z"/><path class="cls-1" d="M1352.26,468.1544c10.3272,27.5864,22.5321,57.1633,12.5385,85.7947-8.34,23.8953-27.4708,44.719-53.5711,47.7344-59.5525,6.8793-54.9934-93.6824-35.6256-135.8732,6.0173-13.1078-14.728-21.4643-20.7248-8.4014-14.23,30.999-31.7927,83.9076-20.0888,115.2254,12.4448,33.3,40.04,54.0412,76.2469,51.5139,33.4183-2.3327,60.2738-27.0048,72.6556-57.04,14.549-35.2926,8.3231-74.5748-6.0764-108.7909C1373.35,448.1864,1347.3394,455.0111,1352.26,468.1544Z"/><path class="cls-1" d="M1550.419,455.35q-25.3329,3.1583-50.7721,4.92c6.5317-9.8864,15.0673-18.145,26.4659-23.4439,13.0381-6.0608,1.6938-25.3439-11.287-19.31-19.3213,8.9817-32.5756,25.2159-41.73,44.2238q-13.2733.5437-26.5694.7144c-14.3793.18-14.4188,22.5438,0,22.3629,5.9334-.0746,11.8624-.2264,17.7891-.4133-5.1119,16.6105-8.01,33.9333-9.7151,49.5933-4.3386,39.8426,31.4993,106.1962,73.5114,86.9246,23.5892-10.8208,14.3923-22.0424,0-22.3629-37.9476-.8446-54.7651-45.5573-49.8178-73.5107,2.37-13.3937,5.2846-28.0357,10.1628-41.7136q31.0536-1.7853,61.9621-5.6224C1564.5123,475.9558,1564.6882,453.5708,1550.419,455.35Z"/><path class="cls-1" d="M1730.9843,518.495c-5.9486-13.3539-18.0917-19.6232-32.1463-21.2316-14.9337-1.7089-34.2253.71-45.6572-11.2866-10.105-10.6041-.888-37.1442,12.9429-40.5111,16.7831-4.0855,38.1447,3.4808,53.4292,9.784,13.2931,5.4818,19.086-16.1449,5.9449-21.5641-26.75-11.0311-71.34-22.483-88.8808,8.7963-6.76,12.0539-13.1053,27.6626-9.4853,41.6329,3.5492,13.6967,14.9,23.9216,27.7034,29.0111,7.8285,3.1118,16.069,4.3637,24.4241,5.13,7.5636.6942,15.9948-.202,23.2277,2.2988,14.5292,5.024,10.4236,25.6439,7.4621,37.053-10.6233,40.9242-56.96,41.7612-91.1239,35.7107-14.0735-2.4923-20.1142,19.0546-5.945,21.5639,33.834,5.992,71.1968,7.1552,98.5286-17.147C1731.1968,580.1409,1742.1214,543.4955,1730.9843,518.495Z"/><path class="cls-1" d="M2137.4484,594.4084c-6.9036-3.1382-4.0777-21.6316-4.3508-27.8589a119.605,119.605,0,0,0-5.0618-31.225c-3.0756-9.61-8.2225-20.7954-16.9952-26.4331-9.2235-5.9275-21.2564-4.4881-31.7-3.5222-10.2246.946-19.59,3.4408-27.7,7.9227.6493-2.7819,1.2585-5.5724,1.9217-8.3512,3.3431-14.0087-18.66-18.0168-21.9935-4.048q-9.8111,41.1122-17.59,82.6486c-1.9564,9.0376-3.506,18.086-4.8146,26.8292-2.1236,14.1882,19.5565,18.2893,21.9934,4.048,1.2634-7.3829,2.61-14.75,3.9687-22.1141a223.2968,223.2968,0,0,1,12.5089-41.0529c8.2609-19.4322,23.7494-24.3679,43.8885-24.2113,7.4012.0577,9,1.3087,12.2664,7.63a58.4838,58.4838,0,0,1,4.6732,13.3941c2.1007,9.0071,2.4247,18.4827,2.5437,27.6917.194,15,1.1428,31.7167,16.6922,38.7841C2140.8015,620.4959,2150.5636,600.37,2137.4484,594.4084Z"/><path class="cls-1" d="M2362.5668,619.51a289.72,289.72,0,0,1-11.9513-30.7228c-.1819-2.3445-.31-4.6762-.4419-6.95-.6887-11.8694-.9943-23.9353-4.3908-35.4258a54.2458,54.2458,0,0,0-7.5959-15.7141,283.8576,283.8576,0,0,1,7.2094-100.4833c3.5619-13.9547-18.2819-18.7475-21.84-4.81a304.8223,304.8223,0,0,0-9.2295,85.8193,64.2326,64.2326,0,0,0-26.4562-5.5313c-27.358.1461-51.436,19.7718-62.7628,43.7714-11.1287,23.58-11.8572,55.26,14.084,69.1265,28.2491,15.1,66.4439,7.8873,93.8094-6.3928a52.6406,52.6406,0,0,0,11.3347,18.963C2351.7082,639.0583,2367.2139,629.6891,2362.5668,619.51Zm-81.97-15.5506c-11.9594.4307-31.448-.0217-38.2348-11.9652-6.5207-11.4755-.5278-27.5671,5.6009-37.9214,6.7739-11.4442,17.572-21.31,30.66-24.7505a40.8308,40.8308,0,0,1,34.1034,6.3351,29.6,29.6,0,0,1,3.8278,3.4177,303.438,303.438,0,0,0,11.0047,51.2,12.1374,12.1374,0,0,0-3.2183,1.2564A95.8978,95.8978,0,0,1,2280.5969,603.9593Z"/><path class="cls-1" d="M2551.914,486.7983c-17.1692-4.6028-39.0265-1.9721-54.939,4.8116-8.2841,3.5316-15.4786,6.39-18.9533,8.7734-2.5648,1.76-6.478,3.2427-7.6758,5.7367a170.9679,170.9679,0,0,1,6.8568-16.3c6.1935-12.8078-12.5264-25.083-18.7781-12.1546-12.5144,25.88-22.0923,53.6078-20.756,82.4144,2.0044,43.2123,2.18,57.2119,18.902,78.8014,3.628,4.6838,11.8815,6.0723,15.9867,2.133,10.617-10.1886-2.175-34.4089-3.704-42.4671-3.0511-16.08-7.6775-34.334-8.4508-50.6815-.829-17.5215,6.6139-19.765,18.87-26.7406,7.0981-4.04,16.4144-9.4613,21.7012-11.5376,14.3458-5.6339,28.2228-2.902,44.2059,1.3827C2559.0391,514.6856,2565.8486,490.5344,2551.914,486.7983Z"/><path class="cls-1" d="M2743.0513,562.103c-1.7373-12.9127-6.5316-24.86-16.7768-33.3268-9.1009-7.521-20.5929-10.78-31.8771-13.4464-10.1717-2.403-23.0468-3.9184-30.7264-11.75-9.2331-9.4161-8.2068-26.2442-7.2388-38.3983.6432-8.0752,1.7732-12.3848,10.5229-13.3953,8.9678-1.0357,19.6878.9205,28.5326,2.2362,14.0782,2.0949,20.1523-19.45,5.9449-21.5641-14.8772-2.2133-33.28-6.1244-47.8588-.8247-13.1428,4.7778-18.098,17.6072-19.2818,30.5306-2.424,26.4612,1.5958,54.8849,28.2427,67.013,21.99,10.0085,54.5495,5.8,58.5847,36.2147.8938,6.7367,1.9774,15.3958.371,21.9933-2.0341,8.3538-11.5957,12.8685-18.39,16.8076a211.2744,211.2744,0,0,1-47.24,19.9667c-13.7906,4.0134-7.9236,25.6,5.9449,21.5641a240.9167,240.9167,0,0,0,44.0788-17.5532c11.91-6.2079,26.3837-13.5616,33.4734-25.59C2746.2417,590.899,2744.7892,575.02,2743.0513,562.103Z"/><path class="cls-1" d="M1924.2573,455.35q-25.3329,3.1583-50.7721,4.92c6.5317-9.8864,15.0672-18.145,26.4658-23.4439,13.0382-6.0608,1.6939-25.3439-11.2869-19.31-19.3213,8.9817-32.5757,25.2159-41.73,44.2238q-13.2735.5437-26.5695.7144c-14.3793.18-14.4187,22.5438,0,22.3629,5.9335-.0746,11.8624-.2264,17.7892-.4133-5.1119,16.6105-8.01,33.9333-9.7151,49.5933C1824.1,573.84,1859.938,640.1937,1901.95,620.9221c23.5892-10.8208,14.3923-22.0424,0-22.3629-37.9476-.8446-54.7651-45.5573-49.8178-73.5107,2.37-13.3937,5.2846-28.0357,10.1628-41.7136q31.0537-1.7853,61.9622-5.6224C1938.3505,475.9558,1938.5264,453.5708,1924.2573,455.35Z"/></g></g></svg>